<svg width="27" height="139" viewBox="0 0 27 139" fill="none" xmlns="http://www.w3.org/2000/svg">
<path d="M17.552 133.144C17.552 133.608 17.256 133.992 16.664 134.296C16.488 134.376 16.272 134.448 16.016 134.512C15.744 134.576 15.432 134.64 15.08 134.704C14.52 134.8 14.248 134.88 14.264 134.944C14.296 135.152 14.488 135.408 14.84 135.712L16.976 137.536C17.104 137.664 17.168 137.792 17.168 137.92C17.168 138.128 17.024 138.256 16.736 138.304C16.608 138.32 16.472 138.336 16.328 138.352C16.168 138.352 16 138.352 15.824 138.352C14.8 138.352 13.56 138.232 12.104 137.992C11.88 137.96 11.768 137.832 11.768 137.608C11.768 137.4 11.88 137.296 12.104 137.296C12.456 137.312 12.88 137.336 13.376 137.368C13.856 137.384 14.416 137.4 15.056 137.416C15.088 137.384 15.104 137.352 15.104 137.32C15.104 136.856 14.056 135.904 11.96 134.464C11.864 134.384 11.816 134.256 11.816 134.08C11.816 133.68 11.992 133.512 12.344 133.576C13.4 133.816 14.168 133.936 14.648 133.936C14.936 133.936 15.312 133.872 15.776 133.744C16.352 133.568 16.64 133.352 16.64 133.096C16.64 132.52 15.8 131.888 14.12 131.2C13.656 131.024 13.176 130.904 12.68 130.84C12.552 131.016 12.272 131.104 11.84 131.104C11.408 131.104 11.192 130.96 11.192 130.672C11.192 130.512 11.272 130.32 11.432 130.096C11.592 129.856 11.816 129.672 12.104 129.544L12.104 129.52C12.216 129.472 12.328 129.448 12.44 129.448C12.712 129.448 12.864 129.544 12.896 129.736L12.848 130.048C13.024 130.128 13.264 130.232 13.568 130.36C13.872 130.488 14.248 130.64 14.696 130.816C16.6 131.488 17.552 132.264 17.552 133.144ZM17.192 127.859C17.192 128.259 17.008 128.483 16.64 128.531C16.416 128.563 16.176 128.587 15.92 128.603C15.648 128.619 15.36 128.627 15.056 128.627C13.92 128.627 12.68 128.547 11.336 128.387C9.976 128.211 8.512 127.963 6.944 127.643C6 127.435 5.24 127.275 4.664 127.163C4.088 127.035 3.712 126.947 3.536 126.899C2.352 126.579 1.544 126.195 1.112 125.747C0.919999 125.555 0.823999 125.331 0.823999 125.075C0.823999 124.691 1.032 124.347 1.448 124.043C1.864 123.739 2.4 123.587 3.056 123.587C3.488 123.587 3.936 123.659 4.4 123.803C4.736 123.915 5.152 124.115 5.648 124.403C6.128 124.675 6.696 125.043 7.352 125.507C8.664 126.451 9.496 126.971 9.848 127.067L11.264 127.403C11.552 127.467 11.832 127.515 12.104 127.547C12.376 127.563 12.64 127.571 12.896 127.571C13.008 127.571 13.12 127.571 13.232 127.571C13.328 127.571 13.432 127.563 13.544 127.547C13.976 127.499 14.192 127.371 14.192 127.163C14.192 127.035 14.136 126.907 14.024 126.779L12.992 125.531C12.464 124.875 12.2 124.451 12.2 124.259C12.2 123.923 12.528 123.755 13.184 123.755C14.72 123.755 15.52 123.483 15.584 122.939C15.6 122.875 15.608 122.811 15.608 122.747C15.608 122.683 15.608 122.619 15.608 122.555C15.608 121.723 15.344 121.107 14.816 120.707C14.704 120.611 14.648 120.523 14.648 120.443C14.648 120.347 14.728 120.299 14.888 120.299C15 120.299 15.12 120.347 15.248 120.443C15.472 120.635 15.76 121.011 16.112 121.571C16.496 122.211 16.688 122.731 16.688 123.131C16.688 123.275 16.664 123.395 16.616 123.491L16.616 123.539C16.424 123.859 15.912 124.115 15.08 124.307C14.344 124.467 14 124.699 14.048 125.003C14.304 125.627 14.688 126.107 15.2 126.443C15.424 126.603 15.92 126.843 16.688 127.163C17.024 127.307 17.192 127.539 17.192 127.859ZM4.328 126.371L7.784 126.707C7.512 126.355 7.216 126.051 6.896 125.795C6.56 125.523 6.216 125.283 5.864 125.075C5.656 124.963 5.392 124.843 5.072 124.715C4.752 124.571 4.368 124.419 3.92 124.259C3.68 124.163 3.424 124.115 3.152 124.115C2.704 124.115 2.32 124.235 2 124.475C1.68 124.715 1.56 124.963 1.64 125.219C1.8 125.715 2.696 126.099 4.328 126.371ZM17.288 114.63C17.288 114.71 17.256 114.782 17.192 114.846C16.744 115.278 16.088 115.502 15.224 115.518C15.16 115.518 15.088 115.51 15.008 115.494C14.912 115.478 14.808 115.47 14.696 115.47L14.192 115.446L14.12 115.446C13.832 115.446 13.728 115.55 13.808 115.758C14.032 116.078 14.36 116.51 14.792 117.054C15.208 117.582 15.72 118.222 16.328 118.974C16.632 119.294 16.784 119.702 16.784 120.198C16.784 120.486 16.632 120.734 16.328 120.942C16.008 121.134 15.704 121.206 15.416 121.158C15 121.11 14.552 120.942 14.072 120.654C13.576 120.366 13.088 120.014 12.608 119.598C12.112 119.166 11.68 118.71 11.312 118.23C10.928 117.734 10.656 117.262 10.496 116.814C10.432 116.638 10.384 116.47 10.352 116.31C10.32 116.15 10.304 115.99 10.304 115.83C10.304 115.142 10.544 114.798 11.024 114.798C11.184 114.798 11.264 114.862 11.264 114.99C11.264 115.038 11.264 115.086 11.264 115.134C11.248 115.182 11.224 115.23 11.192 115.278C10.952 115.566 10.832 115.83 10.832 116.07C10.832 116.31 10.976 116.662 11.264 117.126C11.488 117.494 11.768 117.854 12.104 118.206C12.44 118.558 12.816 118.894 13.232 119.214C13.632 119.518 13.992 119.758 14.312 119.934C14.616 120.11 14.888 120.214 15.128 120.246C15.192 120.262 15.272 120.27 15.368 120.27C15.624 120.27 15.752 120.166 15.752 119.958C15.752 119.702 15.52 119.222 15.056 118.518C13.936 116.838 12.944 115.67 12.08 115.014C11.872 114.854 11.592 114.71 11.24 114.582C11.016 114.502 10.904 114.334 10.904 114.078C10.904 113.79 11.064 113.646 11.384 113.646C11.64 113.646 11.96 113.766 12.344 114.006C13.512 114.39 14.32 114.582 14.768 114.582C15.456 114.55 16.008 114.382 16.424 114.078C16.472 114.03 16.536 114.006 16.616 114.006C16.76 114.006 16.904 114.078 17.048 114.222C17.208 114.366 17.288 114.502 17.288 114.63ZM18.44 110.306C18.44 110.706 18.2 110.906 17.72 110.906C15.336 110.906 12.8 110.738 10.112 110.402C10.08 110.562 10.056 110.73 10.04 110.906C10.008 111.066 9.976 111.226 9.944 111.386C9.88 111.834 9.752 112.058 9.56 112.058C9.368 112.058 9.248 111.962 9.2 111.77L9.2 111.794C9.2 111.938 9.192 111.914 9.176 111.722C9.144 111.53 9.112 111.282 9.08 110.978C9.048 110.674 9.032 110.434 9.032 110.258C8.472 110.162 7.808 109.97 7.04 109.682C6.576 109.522 6.176 109.394 5.84 109.298C5.488 109.186 5.208 109.098 5 109.034C4.68 108.954 4.52 108.746 4.52 108.41C4.52 108.266 4.592 108.21 4.736 108.242C5.184 108.37 5.768 108.53 6.488 108.722C7.192 108.914 8.032 109.122 9.008 109.346C9.008 109.202 9.008 109.026 9.008 108.818C9.008 108.594 9.016 108.338 9.032 108.05C9.048 107.762 9.064 107.514 9.08 107.306C9.08 107.082 9.08 106.906 9.08 106.778C9.08 106.634 9.136 106.562 9.248 106.562C9.344 106.562 9.448 106.626 9.56 106.754C9.672 106.866 9.728 106.994 9.728 107.138C9.728 107.33 9.76 107.618 9.824 108.002C9.872 108.386 9.952 108.874 10.064 109.466C12.032 109.706 14.704 109.826 18.08 109.826C18.32 109.826 18.44 109.986 18.44 110.306ZM6.92 104.465C6.92 104.609 6.84 104.681 6.68 104.681C6.552 104.681 6.4 104.625 6.224 104.513C6.048 104.385 5.856 104.273 5.648 104.177C5.44 104.081 5.272 104.001 5.144 103.937C4.904 103.857 4.616 103.817 4.28 103.817C4.264 103.977 4.216 104.121 4.136 104.249C4.056 104.361 3.912 104.417 3.704 104.417L3.656 104.417C3.544 104.417 3.44 104.385 3.344 104.321C3.232 104.241 3.152 104.169 3.104 104.105C3.072 103.977 3.056 103.889 3.056 103.841C3.056 103.617 3.12 103.441 3.248 103.313C3.376 103.169 3.568 103.097 3.824 103.097C4.128 103.097 4.352 103.113 4.496 103.145C4.64 103.161 4.792 103.193 4.952 103.241C5.224 103.305 5.512 103.409 5.816 103.553C6.12 103.681 6.384 103.825 6.608 103.985C6.816 104.129 6.92 104.289 6.92 104.465ZM17.528 101.873C17.528 102.273 17.456 102.617 17.312 102.905C17.168 103.177 16.968 103.313 16.712 103.313C16.536 103.313 16.448 103.233 16.448 103.073C16.448 103.089 16.504 102.961 16.616 102.689C16.712 102.417 16.76 102.129 16.76 101.825C16.76 100.897 16.328 100.313 15.464 100.073C15.096 99.9771 14.488 100.313 13.64 101.081C13.048 101.625 12.376 101.897 11.624 101.897C11.368 101.897 11.072 101.785 10.736 101.561C10.384 101.337 10.08 101.065 9.824 100.745C9.552 100.425 9.416 100.121 9.416 99.8331C9.416 99.3211 9.544 99.0331 9.8 98.9691C9.848 98.9531 9.896 98.9451 9.944 98.9451C9.992 98.9291 10.04 98.9211 10.088 98.9211C10.344 98.9211 10.472 99.0171 10.472 99.2091C10.472 99.3211 10.432 99.4091 10.352 99.4731C10.272 99.5531 10.232 99.6651 10.232 99.8091C10.232 99.8411 10.232 99.8811 10.232 99.9291C10.232 99.9771 10.248 100.017 10.28 100.049C10.568 100.625 10.968 100.953 11.48 101.033C11.928 101.097 12.552 100.753 13.352 100.001C14.072 99.3291 14.744 98.9931 15.368 98.9931C16.056 98.9931 16.608 99.3451 17.024 100.049C17.36 100.593 17.528 101.201 17.528 101.873ZM26.816 94.8824C26.816 95.9064 26.232 96.4184 25.064 96.4184C23.08 96.4184 20.832 94.5384 18.32 90.7784C18.288 90.6984 18.216 90.6024 18.104 90.4904C17.64 90.5064 17.216 90.5064 16.832 90.4904C16.448 90.4744 16.104 90.4424 15.8 90.3944C15.928 90.5224 16.056 90.6584 16.184 90.8024C16.312 90.9304 16.44 91.0744 16.568 91.2344C16.92 91.6824 17.096 92.0904 17.096 92.4584C17.096 93.2584 16.344 93.6584 14.84 93.6584C13.176 93.6584 11.904 93.4744 11.024 93.1064C10.88 93.0264 10.808 92.9144 10.808 92.7704C10.808 92.4504 11.008 92.2904 11.408 92.2904C11.712 92.2904 12.168 92.3624 12.776 92.5064C13.56 92.6984 14.16 92.7944 14.576 92.7944C15.504 92.7944 15.968 92.5944 15.968 92.1944C15.968 91.8744 15.68 91.4664 15.104 90.9704C14.896 90.7784 14.688 90.6024 14.48 90.4424C14.272 90.2824 14.064 90.1464 13.856 90.0344L13.4 89.7704L12.152 89.1704L11.72 88.9784C11.576 88.8984 11.504 88.7944 11.504 88.6664C11.504 88.4264 11.616 88.3064 11.84 88.3064C11.872 88.3064 11.92 88.3224 11.984 88.3544L12.056 88.4024L12.2 88.4024C12.744 88.6744 13.48 88.9144 14.408 89.1224C15.336 89.3144 16.464 89.4664 17.792 89.5784L17.36 88.2824C17.36 88.0584 17.488 87.9464 17.744 87.9464C17.888 87.9464 17.976 88.0184 18.008 88.1624C18.12 88.5144 18.264 89.0184 18.44 89.6744C18.968 89.7384 19.432 89.8024 19.832 89.8664C20.232 89.9304 20.568 89.9944 20.84 90.0584C22.408 90.4424 23.736 91.0104 24.824 91.7624C26.152 92.7064 26.816 93.7464 26.816 94.8824ZM26.144 94.8584C26.144 94.0264 25.504 93.2024 24.224 92.3864C23.664 92.0344 23.088 91.7464 22.496 91.5224C21.904 91.2824 21.304 91.1064 20.696 90.9944C20.488 90.9784 20.256 90.9784 20 90.9944C19.712 91.0584 19.568 91.1624 19.568 91.3064C19.568 91.3704 19.592 91.4424 19.64 91.5224L19.616 91.5704C21.504 94.3544 23.328 95.7464 25.088 95.7464C25.792 95.7464 26.144 95.4504 26.144 94.8584ZM17.36 85.6754C17.36 86.1874 17.16 86.6194 16.76 86.9714C16.392 87.2914 15.976 87.4514 15.512 87.4514C14.648 87.4514 13.728 87.0594 12.752 86.2754C12.336 85.9554 11.968 85.6114 11.648 85.2434C11.328 84.8754 11.04 84.4914 10.784 84.0914C10.736 84.0114 10.712 83.8994 10.712 83.7554C10.712 83.2914 10.824 83.0594 11.048 83.0594C11.112 83.0594 11.184 83.1074 11.264 83.2034L11.288 83.2034C11.624 82.9634 11.976 82.7234 12.344 82.4834C12.712 82.2434 13.144 82.1234 13.64 82.1234C14.056 82.1234 14.48 82.2354 14.912 82.4594C15.344 82.6674 15.752 82.9554 16.136 83.3234C16.504 83.6754 16.8 84.0594 17.024 84.4754C17.248 84.8914 17.36 85.2914 17.36 85.6754ZM16.616 85.6514C16.6 85.2514 16.44 84.8274 16.136 84.3794C15.816 83.9314 15.432 83.5474 14.984 83.2274C14.536 82.8914 14.112 82.7154 13.712 82.6994C13.088 82.6674 12.384 82.9874 11.6 83.6594C12.096 84.3474 12.68 84.9554 13.352 85.4834C14.168 86.1074 14.904 86.4194 15.56 86.4194C16.264 86.4194 16.616 86.1634 16.616 85.6514ZM17 76.033C17.016 76.385 16.808 76.657 16.376 76.849C16.296 76.881 16.16 76.921 15.968 76.969C15.776 77.017 15.528 77.081 15.224 77.161C14.824 77.225 14.664 77.329 14.744 77.473C15.144 77.729 15.584 78.097 16.064 78.577C16.672 79.185 16.976 79.641 16.976 79.945C16.976 80.281 16.72 80.569 16.208 80.809C15.808 81.017 15.424 81.121 15.056 81.121C13.824 81.121 12.744 80.961 11.816 80.641C11.624 80.561 11.528 80.441 11.528 80.281C11.528 80.137 11.6 80.001 11.744 79.873C11.888 79.745 12.048 79.681 12.224 79.681C12.32 79.681 12.512 79.745 12.8 79.873C13.392 80.177 14.056 80.329 14.792 80.329C15.592 80.329 15.992 80.177 15.992 79.873C15.992 79.729 15.76 79.377 15.296 78.817C14.448 77.825 13.344 77.113 11.984 76.681C11.792 76.601 11.696 76.473 11.696 76.297C11.696 76.009 11.816 75.865 12.056 75.865C12.216 75.865 12.392 75.889 12.584 75.937C12.776 75.969 12.992 76.025 13.232 76.105C13.472 76.169 13.688 76.217 13.88 76.249C14.072 76.281 14.248 76.297 14.408 76.297C14.52 76.297 14.656 76.289 14.816 76.273C14.96 76.257 15.12 76.233 15.296 76.201C15.776 76.121 16.056 76.033 16.136 75.937C16.136 75.937 16.096 75.857 16.016 75.697C15.92 75.521 15.824 75.329 15.728 75.121C15.616 74.897 15.52 74.713 15.44 74.569C15.344 74.409 15.296 74.329 15.296 74.329C15.296 74.169 15.36 74.089 15.488 74.089C15.616 74.089 15.8 74.225 16.04 74.497C16.28 74.753 16.496 75.033 16.688 75.337C16.88 75.641 16.984 75.873 17 76.033ZM16.832 73.1794C16.832 73.3394 16.648 73.4434 16.28 73.4914C15.896 73.5394 15.504 73.5634 15.104 73.5634C14.848 73.5634 14.616 73.5634 14.408 73.5634C14.184 73.5474 14.016 73.5394 13.904 73.5394C13.744 73.5394 13.544 73.5314 13.304 73.5154C13.048 73.4994 12.76 73.4754 12.44 73.4434C11.784 73.3954 11.288 73.3714 10.952 73.3714C10.792 73.3714 10.64 73.3794 10.496 73.3954C10.336 73.4114 10.192 73.4194 10.064 73.4194L9.968 73.4194C9.776 73.4194 9.68 73.3154 9.68 73.1074C9.68 72.9474 9.776 72.8594 9.968 72.8434C10.144 72.8114 10.504 72.7874 11.048 72.7714C11.592 72.7554 12.312 72.7394 13.208 72.7234C13.448 72.7234 13.568 72.6754 13.568 72.5794C13.568 72.4674 13.384 72.2994 13.016 72.0754C12.248 71.6114 11.6 71.1074 11.072 70.5634C10.704 70.1634 10.52 69.7954 10.52 69.4594C10.52 69.0594 10.696 68.7154 11.048 68.4274C11.16 68.3314 11.28 68.2834 11.408 68.2834C11.616 68.2834 11.72 68.3714 11.72 68.5474C11.72 68.6114 11.696 68.6834 11.648 68.7634L11.672 68.7874C11.448 69.0914 11.336 69.2914 11.336 69.3874C11.336 69.7714 11.544 70.1314 11.96 70.4674C13.4 71.6354 14.856 72.3554 16.328 72.6274C16.664 72.6914 16.832 72.8754 16.832 73.1794ZM17.072 63.1722C17.072 63.5402 16.88 63.7242 16.496 63.7242C15.52 63.7242 13.904 63.5562 11.648 63.2202L12.104 64.3722C12.104 64.5642 12.016 64.6602 11.84 64.6602C11.728 64.6602 11.64 64.6042 11.576 64.4922C11.432 64.2522 11.304 64.0202 11.192 63.7962C11.064 63.5562 10.944 63.3322 10.832 63.1242C8.352 62.7562 6.296 62.3802 4.664 61.9962C3.032 61.5962 1.824 61.1962 1.04 60.7962C0.895996 60.7162 0.823996 60.6202 0.823996 60.5082C0.823996 60.3322 0.919996 60.2442 1.112 60.2442C1.144 60.2442 1.176 60.2522 1.208 60.2682C1.24 60.2682 1.272 60.2762 1.304 60.2922C2.52 60.9162 5.008 61.4522 8.768 61.9002C8.88 61.9162 8.984 61.9322 9.08 61.9482C9.16 61.9482 9.24 61.9482 9.32 61.9482C9.976 61.9482 10.264 61.7162 10.184 61.2522C10.152 61.0442 10.128 60.8522 10.112 60.6762C10.096 60.4842 10.088 60.3082 10.088 60.1482C10.088 59.1722 10.216 58.3242 10.472 57.6042C10.856 56.5322 11.448 55.9962 12.248 55.9962C12.936 55.9962 13.88 56.9962 15.08 58.9962C15.576 59.7962 15.984 60.5162 16.304 61.1562C16.608 61.7962 16.84 62.3482 17 62.8122C17.048 62.9242 17.072 63.0442 17.072 63.1722ZM15.68 62.0442C15.584 61.3722 15.16 60.3962 14.408 59.1162C13.576 57.6602 12.872 56.9322 12.296 56.9322C11.768 56.9322 11.4 57.3642 11.192 58.2282C11.032 58.7722 10.952 59.3802 10.952 60.0522C10.952 60.1642 10.96 60.3322 10.976 60.5562C10.976 60.7642 10.992 61.0282 11.024 61.3482C11.072 61.6042 11.216 61.8282 11.456 62.0202C11.696 62.1962 11.936 62.3002 12.176 62.3322C12.384 62.3482 12.64 62.3722 12.944 62.4042C13.232 62.4362 13.568 62.4682 13.952 62.5002L14.912 62.5482C15.472 62.5802 15.728 62.4122 15.68 62.0442ZM16.832 54.5935C16.832 54.7535 16.648 54.8575 16.28 54.9055C15.896 54.9535 15.504 54.9775 15.104 54.9775C14.848 54.9775 14.616 54.9775 14.408 54.9775C14.184 54.9615 14.016 54.9535 13.904 54.9535C13.744 54.9535 13.544 54.9455 13.304 54.9295C13.048 54.9135 12.76 54.8895 12.44 54.8575C11.784 54.8095 11.288 54.7855 10.952 54.7855C10.792 54.7855 10.64 54.7935 10.496 54.8095C10.336 54.8255 10.192 54.8335 10.064 54.8335L9.968 54.8335C9.776 54.8335 9.68 54.7295 9.68 54.5215C9.68 54.3615 9.776 54.2735 9.968 54.2575C10.144 54.2255 10.504 54.2015 11.048 54.1855C11.592 54.1695 12.312 54.1535 13.208 54.1375C13.448 54.1375 13.568 54.0895 13.568 53.9935C13.568 53.8815 13.384 53.7135 13.016 53.4895C12.248 53.0255 11.6 52.5215 11.072 51.9775C10.704 51.5775 10.52 51.2095 10.52 50.8735C10.52 50.4735 10.696 50.1295 11.048 49.8415C11.16 49.7455 11.28 49.6975 11.408 49.6975C11.616 49.6975 11.72 49.7855 11.72 49.9615C11.72 50.0255 11.696 50.0975 11.648 50.1775L11.672 50.2015C11.448 50.5055 11.336 50.7055 11.336 50.8015C11.336 51.1855 11.544 51.5455 11.96 51.8815C13.4 53.0495 14.856 53.7695 16.328 54.0415C16.664 54.1055 16.832 54.2895 16.832 54.5935ZM17.288 43.9429C17.288 44.0229 17.256 44.0949 17.192 44.1589C16.744 44.5909 16.088 44.8149 15.224 44.8309C15.16 44.8309 15.088 44.8229 15.008 44.8069C14.912 44.7909 14.808 44.7829 14.696 44.7829L14.192 44.7589L14.12 44.7589C13.832 44.7589 13.728 44.8629 13.808 45.0709C14.032 45.3909 14.36 45.8229 14.792 46.3669C15.208 46.8949 15.72 47.5349 16.328 48.2869C16.632 48.6069 16.784 49.0149 16.784 49.5109C16.784 49.7989 16.632 50.0469 16.328 50.2549C16.008 50.4469 15.704 50.5189 15.416 50.4709C15 50.4229 14.552 50.2549 14.072 49.9669C13.576 49.6789 13.088 49.3269 12.608 48.9109C12.112 48.4789 11.68 48.0229 11.312 47.5429C10.928 47.0469 10.656 46.5749 10.496 46.1269C10.432 45.9509 10.384 45.7829 10.352 45.6229C10.32 45.4629 10.304 45.3029 10.304 45.1429C10.304 44.4549 10.544 44.1109 11.024 44.1109C11.184 44.1109 11.264 44.1749 11.264 44.3029C11.264 44.3509 11.264 44.3989 11.264 44.4469C11.248 44.4949 11.224 44.5429 11.192 44.5909C10.952 44.8789 10.832 45.1429 10.832 45.3829C10.832 45.6229 10.976 45.9749 11.264 46.4389C11.488 46.8069 11.768 47.1669 12.104 47.5189C12.44 47.8709 12.816 48.2069 13.232 48.5269C13.632 48.8309 13.992 49.0709 14.312 49.2469C14.616 49.4229 14.888 49.5269 15.128 49.5589C15.192 49.5749 15.272 49.5829 15.368 49.5829C15.624 49.5829 15.752 49.4789 15.752 49.2709C15.752 49.0149 15.52 48.5349 15.056 47.8309C13.936 46.1509 12.944 44.9829 12.08 44.3269C11.872 44.1669 11.592 44.0229 11.24 43.8949C11.016 43.8149 10.904 43.6469 10.904 43.3909C10.904 43.1029 11.064 42.9589 11.384 42.9589C11.64 42.9589 11.96 43.0789 12.344 43.3189C13.512 43.7029 14.32 43.8949 14.768 43.8949C15.456 43.8629 16.008 43.6949 16.424 43.3909C16.472 43.3429 16.536 43.3189 16.616 43.3189C16.76 43.3189 16.904 43.3909 17.048 43.5349C17.208 43.6789 17.288 43.8149 17.288 43.9429ZM9.05599 40.051C9.05599 40.291 8.912 40.403 8.624 40.387L7.712 40.147C7.53599 40.099 7.44799 39.987 7.44799 39.811C7.44799 39.443 7.6 39.291 7.904 39.355C8.128 39.371 8.376 39.427 8.648 39.523C8.92 39.619 9.05599 39.795 9.05599 40.051ZM16.616 40.891C16.616 41.035 16.552 41.131 16.424 41.179C16.248 41.243 16.032 41.283 15.776 41.299C15.52 41.315 15.232 41.315 14.912 41.299C14.544 41.267 14.08 41.179 13.52 41.035C12.96 40.875 12.312 40.659 11.576 40.387C11.416 40.323 11.336 40.211 11.336 40.051C11.336 39.747 11.472 39.643 11.744 39.739C11.952 39.803 12.16 39.859 12.368 39.907C12.576 39.955 12.784 40.003 12.992 40.051C13.36 40.131 13.688 40.195 13.976 40.243C14.264 40.291 14.52 40.315 14.744 40.315C15.528 40.315 15.936 40.307 15.968 40.291C16.128 40.243 16.28 40.291 16.424 40.435C16.552 40.579 16.616 40.731 16.616 40.891ZM16.832 37.8938C16.832 38.1338 16.616 38.2218 16.184 38.1578C15.624 38.1098 14.936 38.0298 14.12 37.9178C13.288 37.7898 12.328 37.6378 11.24 37.4618C11 37.3818 10.88 37.2538 10.88 37.0778C10.88 36.8538 10.984 36.7418 11.192 36.7418C11.208 36.7418 11.24 36.7418 11.288 36.7418C11.32 36.7418 11.36 36.7498 11.408 36.7658C11.552 36.7978 11.712 36.8298 11.888 36.8618C12.048 36.8778 12.224 36.8858 12.416 36.8858C12.64 36.8858 12.88 36.8778 13.136 36.8618C13.392 36.8298 13.664 36.7818 13.952 36.7178C13.952 36.6218 13.608 36.2298 12.92 35.5418C12.264 34.8538 11.872 34.2938 11.744 33.8618L11.72 33.8618C11.704 33.8138 11.696 33.7658 11.696 33.7178C11.696 33.6698 11.696 33.6298 11.696 33.5978C11.696 33.2938 11.84 33.0938 12.128 32.9978L14.36 32.6618C15.336 32.5178 15.824 32.2538 15.824 31.8698C15.824 31.7098 15.768 31.5498 15.656 31.3898C15.496 31.1658 15.328 30.9498 15.152 30.7418C14.96 30.5338 14.76 30.3498 14.552 30.1898C14.52 30.0938 14.504 30.0298 14.504 29.9978C14.504 29.8858 14.576 29.8298 14.72 29.8298C14.816 29.8298 14.944 29.8938 15.104 30.0218C15.36 30.2298 15.624 30.4458 15.896 30.6698C16.152 30.8938 16.352 31.1178 16.496 31.3418C16.672 31.6458 16.76 31.9018 16.76 32.1098C16.76 32.5418 16.408 32.8698 15.704 33.0938L13.76 33.5018C13.104 33.6458 12.808 33.8298 12.872 34.0538C12.872 34.0698 12.872 34.0938 12.872 34.1258C12.856 34.1418 12.848 34.1658 12.848 34.1978C12.848 34.2618 12.864 34.3418 12.896 34.4378C12.928 34.5178 12.984 34.5978 13.064 34.6778L13.664 35.2538C14.176 35.7498 14.672 36.1658 15.152 36.5018C15.632 36.8378 16.08 37.1098 16.496 37.3178C16.72 37.4458 16.832 37.6378 16.832 37.8938ZM17.528 25.3731C17.528 25.7731 17.456 26.1171 17.312 26.4051C17.168 26.6771 16.968 26.8131 16.712 26.8131C16.536 26.8131 16.448 26.7331 16.448 26.5731C16.448 26.5891 16.504 26.4611 16.616 26.1891C16.712 25.9171 16.76 25.6291 16.76 25.3251C16.76 24.3971 16.328 23.8131 15.464 23.5731C15.096 23.4771 14.488 23.8131 13.64 24.5811C13.048 25.1251 12.376 25.3971 11.624 25.3971C11.368 25.3971 11.072 25.2851 10.736 25.0611C10.384 24.8371 10.08 24.5651 9.82399 24.2451C9.55199 23.9251 9.41599 23.6211 9.41599 23.3331C9.41599 22.8211 9.54399 22.5331 9.79999 22.4691C9.84799 22.4531 9.89599 22.4451 9.94399 22.4451C9.99199 22.4291 10.04 22.4211 10.088 22.4211C10.344 22.4211 10.472 22.5171 10.472 22.7091C10.472 22.8211 10.432 22.9091 10.352 22.9731C10.272 23.0531 10.232 23.1651 10.232 23.3091C10.232 23.3411 10.232 23.3811 10.232 23.4291C10.232 23.4771 10.248 23.5171 10.28 23.5491C10.568 24.1251 10.968 24.4531 11.48 24.5331C11.928 24.5971 12.552 24.2531 13.352 23.5011C14.072 22.8291 14.744 22.4931 15.368 22.4931C16.056 22.4931 16.608 22.8451 17.024 23.5491C17.36 24.0931 17.528 24.7011 17.528 25.3731ZM18.44 19.5565C18.44 19.9565 18.2 20.1565 17.72 20.1565C15.336 20.1565 12.8 19.9885 10.112 19.6525C10.08 19.8125 10.056 19.9805 10.04 20.1565C10.008 20.3165 9.97599 20.4765 9.94399 20.6365C9.87999 21.0845 9.75199 21.3085 9.55999 21.3085C9.36799 21.3085 9.24799 21.2125 9.19999 21.0205L9.19999 21.0445C9.19999 21.1885 9.19199 21.1645 9.17599 20.9725C9.14399 20.7805 9.11199 20.5325 9.07999 20.2285C9.04799 19.9245 9.03199 19.6845 9.03199 19.5085C8.47199 19.4125 7.80799 19.2205 7.03999 18.9325C6.57599 18.7725 6.17599 18.6445 5.83999 18.5485C5.48799 18.4365 5.20799 18.3485 4.99999 18.2845C4.67999 18.2045 4.51999 17.9965 4.51999 17.6605C4.51999 17.5165 4.59199 17.4605 4.73599 17.4925C5.18399 17.6205 5.76799 17.7805 6.48799 17.9725C7.19199 18.1645 8.03199 18.3725 9.00799 18.5965C9.00799 18.4525 9.00799 18.2765 9.00799 18.0685C9.00799 17.8445 9.01599 17.5885 9.03199 17.3005C9.04799 17.0125 9.06399 16.7645 9.07999 16.5565C9.07999 16.3325 9.07999 16.1565 9.07999 16.0285C9.07999 15.8845 9.13599 15.8125 9.24799 15.8125C9.34399 15.8125 9.44799 15.8765 9.55999 16.0045C9.67199 16.1165 9.72799 16.2445 9.72799 16.3885C9.72799 16.5805 9.75999 16.8685 9.82399 17.2525C9.87199 17.6365 9.95199 18.1245 10.064 18.7165C12.032 18.9565 14.704 19.0765 18.08 19.0765C18.32 19.0765 18.44 19.2365 18.44 19.5565ZM26.816 17.5855C26.816 18.6095 26.232 19.1215 25.064 19.1215C23.08 19.1215 20.832 17.2415 18.32 13.4815C18.288 13.4015 18.216 13.3055 18.104 13.1935C17.64 13.2095 17.216 13.2095 16.832 13.1935C16.448 13.1775 16.104 13.1455 15.8 13.0975C15.928 13.2255 16.056 13.3615 16.184 13.5055C16.312 13.6335 16.44 13.7775 16.568 13.9375C16.92 14.3855 17.096 14.7935 17.096 15.1615C17.096 15.9615 16.344 16.3615 14.84 16.3615C13.176 16.3615 11.904 16.1775 11.024 15.8095C10.88 15.7295 10.808 15.6175 10.808 15.4735C10.808 15.1535 11.008 14.9935 11.408 14.9935C11.712 14.9935 12.168 15.0655 12.776 15.2095C13.56 15.4015 14.16 15.4975 14.576 15.4975C15.504 15.4975 15.968 15.2975 15.968 14.8975C15.968 14.5775 15.68 14.1695 15.104 13.6735C14.896 13.4815 14.688 13.3055 14.48 13.1455C14.272 12.9855 14.064 12.8495 13.856 12.7375L13.4 12.4735L12.152 11.8735L11.72 11.6815C11.576 11.6015 11.504 11.4975 11.504 11.3695C11.504 11.1295 11.616 11.0095 11.84 11.0095C11.872 11.0095 11.92 11.0255 11.984 11.0575L12.056 11.1055L12.2 11.1055C12.744 11.3775 13.48 11.6175 14.408 11.8255C15.336 12.0175 16.464 12.1695 17.792 12.2815L17.36 10.9855C17.36 10.7615 17.488 10.6495 17.744 10.6495C17.888 10.6495 17.976 10.7215 18.008 10.8655C18.12 11.2175 18.264 11.7215 18.44 12.3775C18.968 12.4415 19.432 12.5055 19.832 12.5695C20.232 12.6335 20.568 12.6975 20.84 12.7615C22.408 13.1455 23.736 13.7135 24.824 14.4655C26.152 15.4095 26.816 16.4495 26.816 17.5855ZM26.144 17.5615C26.144 16.7295 25.504 15.9055 24.224 15.0895C23.664 14.7375 23.088 14.4495 22.496 14.2255C21.904 13.9855 21.304 13.8095 20.696 13.6975C20.488 13.6815 20.256 13.6815 20 13.6975C19.712 13.7615 19.568 13.8655 19.568 14.0095C19.568 14.0735 19.592 14.1455 19.64 14.2255L19.616 14.2735C21.504 17.0575 23.328 18.4495 25.088 18.4495C25.792 18.4495 26.144 18.1535 26.144 17.5615ZM18.632 8.4985C18.648 9.0425 18.256 9.4745 17.456 9.7945C16.656 10.0985 15.456 10.2505 13.856 10.2505C12.944 10.2505 11.928 10.1785 10.808 10.0345C9.67199 9.8745 8.42399 9.6425 7.06399 9.3385C3.44799 8.5545 1.63999 7.6105 1.63999 6.5065C1.63999 6.0745 2.03199 5.7625 2.81599 5.5705C3.40799 5.4265 3.94399 5.3785 4.42399 5.4265C5.97599 5.5865 8.10399 6.5065 10.808 8.1865C10.936 8.2985 11.104 8.4345 11.312 8.5945C11.52 8.7385 11.768 8.9145 12.056 9.1225C12.424 9.1545 12.784 9.1865 13.136 9.2185C13.488 9.2345 13.824 9.2425 14.144 9.2425C14.72 9.2425 15.312 9.1945 15.92 9.0985C16.864 8.9225 17.336 8.6585 17.336 8.3065C17.336 7.9705 17.12 7.6345 16.688 7.2985L15.56 6.6025C15.432 6.5225 15.368 6.4185 15.368 6.2905C15.368 6.1305 15.448 6.0505 15.608 6.0505C15.64 6.0505 15.672 6.0585 15.704 6.0745C15.736 6.0745 15.768 6.0825 15.8 6.0985C16.2 6.2745 16.544 6.4345 16.832 6.5785C17.104 6.7065 17.32 6.8265 17.48 6.9385C18.248 7.4345 18.632 7.9545 18.632 8.4985ZM2.83999 6.5305C3.31999 7.6345 5.95999 8.4585 10.76 9.0025C10.712 8.9545 10.616 8.8825 10.472 8.7865C7.94399 7.0105 5.92799 6.1225 4.42399 6.1225C4.31199 6.1225 4.19199 6.1305 4.06399 6.1465C3.91999 6.1625 3.75999 6.1865 3.58399 6.2185C3.15199 6.3145 2.90399 6.4185 2.83999 6.5305ZM17.504 3.34375C17.504 4.04775 17.288 4.62375 16.856 5.07175C16.424 5.50375 15.84 5.71975 15.104 5.71975C14.944 5.71975 14.784 5.71175 14.624 5.69575C14.464 5.66375 14.304 5.63175 14.144 5.59975C13.456 5.42375 12.72 4.93575 11.936 4.13575C11.088 3.23975 10.664 2.46375 10.664 1.80775C10.664 1.26375 10.968 1.00775 11.576 1.03975C12.36 1.05575 13.128 1.48775 13.88 2.33575C14.184 2.70375 14.464 3.08775 14.72 3.48775C14.976 3.87175 15.104 4.27975 15.104 4.71175L15.104 4.73575C16.144 4.68775 16.664 4.15175 16.664 3.12775C16.664 2.79175 16.584 2.41575 16.424 1.99975C16.408 1.96775 16.4 1.91975 16.4 1.85575C16.4 1.64775 16.504 1.54375 16.712 1.54375C16.856 1.54375 16.968 1.61575 17.048 1.75975C17.352 2.20775 17.504 2.73575 17.504 3.34375ZM13.976 4.08775C13.864 3.59175 13.656 3.16775 13.352 2.81575C12.824 2.19175 12.32 1.87975 11.84 1.87975L11.792 1.87975C11.68 1.87975 11.592 1.91975 11.528 1.99975C11.464 2.07975 11.448 2.13575 11.48 2.16775C11.48 2.66375 11.84 3.19175 12.56 3.75175C12.672 3.83175 12.824 3.92775 13.016 4.03975C13.192 4.15175 13.408 4.27175 13.664 4.39975C13.696 4.41575 13.728 4.42375 13.76 4.42375C13.904 4.42375 13.976 4.31175 13.976 4.08775Z" fill="#CF1818"/>
</svg>
